<svg width="1200" height="700" viewBox="0 0 1200 700" xmlns="http://www.w3.org/2000/svg">
  <rect width="1200" height="700" fill="#0E1A2C"/>
  <circle cx="1070" cy="70" r="250" fill="#F2A900" fill-opacity=".08"/>
  <circle cx="100" cy="690" r="275" fill="#77E0BD" fill-opacity=".04"/>
  <rect x="72" y="72" width="1056" height="556" rx="30" fill="#13223A" stroke="#2A3A52"/>
  <text x="118" y="150" fill="#F2A900" font-family="Arial, sans-serif" font-size="25" font-weight="700">BITCOIN INVESTMENT THESIS</text>
  <text x="118" y="220" fill="#F4F7FB" font-family="Arial, sans-serif" font-size="54" font-weight="700">Valuation framework</text>
  <text x="118" y="272" fill="#A9B4C5" font-family="Arial, sans-serif" font-size="26">Scenarios · gold capture · adoption · liquidity · cycle analysis</text>

  <rect x="118" y="330" width="270" height="160" rx="18" fill="#0E1A2C" stroke="#2A3A52"/>
  <text x="145" y="375" fill="#A9B4C5" font-family="Arial, sans-serif" font-size="18">WEIGHTED TARGET</text>
  <text x="145" y="440" fill="#F2A900" font-family="Arial, sans-serif" font-size="46" font-weight="700">$179K</text>

  <rect x="420" y="330" width="270" height="160" rx="18" fill="#0E1A2C" stroke="#2A3A52"/>
  <text x="447" y="375" fill="#A9B4C5" font-family="Arial, sans-serif" font-size="18">REFERENCE VALUE</text>
  <text x="447" y="440" fill="#F4F7FB" font-family="Arial, sans-serif" font-size="46" font-weight="700">$185K</text>

  <rect x="722" y="330" width="290" height="160" rx="18" fill="#0E1A2C" stroke="#2A3A52"/>
  <text x="749" y="375" fill="#A9B4C5" font-family="Arial, sans-serif" font-size="18">REQUIRED CAGR</text>
  <text x="749" y="440" fill="#77E0BD" font-family="Arial, sans-serif" font-size="46" font-weight="700">41.2%</text>

  <path d="M120 560 C230 535, 300 570, 395 520 S560 455, 655 490 S820 425, 1030 370" fill="none" stroke="#F2A900" stroke-width="8" stroke-linecap="round"/>
  <circle cx="1030" cy="370" r="9" fill="#F2A900"/>
</svg>